<?xml version="1.0" encoding="utf-8"?>
<!-- Generator: Adobe Illustrator 23.0.1, SVG Export Plug-In . SVG Version: 6.00 Build 0)  -->
<svg version="1.1" id="Layer_1" xmlns="http://www.w3.org/2000/svg" xmlns:xlink="http://www.w3.org/1999/xlink" x="0px" y="0px"
	 viewBox="0 0 512 512" style="enable-background:new 0 0 512 512;" xml:space="preserve">
<style type="text/css">
	.st0{fill:#FFD400;}
	.st1{fill:#FDBF00;}
	.st2{fill:#70DA40;}
	.st3{fill:#49A520;}
	.st4{fill:#90E36A;}
	.st5{fill:#56C225;}
	.st6{fill:#FF9F00;}
	.st7{fill:none;stroke:#DB0000;stroke-width:18;stroke-miterlimit:10;}
</style>
<path class="st0" d="M461.2,116.7l-45.6,128.4l-49.5,30.3h-210L136,226.5h-0.9l72.6-202.2L256,42L461.2,116.7z"/>
<path class="st1" d="M461.2,116.7l-45.6,128.4l-49.5,30.3H256V42L461.2,116.7z"/>
<path class="st2" d="M415.6,245.1l-10.8,29.7L328,486.3l-72-26.1L74.2,393.9l47.4-130.5l13.5-36.9h0.9c18.9,0,30.6,10.5,39.9,18.9
	c16.2,14.1,24,14.1,40.2,0c9.3-8.4,21-18.9,39.9-18.9c18.9,0,30.6,10.5,39.9,18.9c16.2,14.1,24,14.1,40.2,0
	c9.3-8.4,21-18.9,39.9-18.9C394.6,226.5,406.3,236.7,415.6,245.1z"/>
<path class="st3" d="M415.6,245.1l-10.8,29.7L328,486.3l-72-26.1V226.5c18.9,0,30.6,10.5,39.9,18.9c16.2,14.1,24,14.1,40.2,0
	c9.3-8.4,21-18.9,39.9-18.9C394.6,226.5,406.3,236.7,415.6,245.1z"/>
<path class="st1" d="M494.5,112.8L484.3,141L256,57.9l-81.6-29.7L184.6,0L256,26.1L494.5,112.8z"/>
<path class="st4" d="M361.3,482.4l-10.2,28.2L256,476.1L40.9,397.8l10.2-28.2L256,444L361.3,482.4z"/>
<path class="st1" d="M474.1,169.2l-10.2,28.2L256,121.8L153.7,84.6l10.2-28.2L256,90L474.1,169.2z"/>
<path class="st4" d="M381.7,426l-10.2,28.2l-115.5-42L61.3,341.4l10.2-28.2L256,380.4L381.7,426z"/>
<path class="st5" d="M421,391.5h91v30h-91V391.5z"/>
<path class="st5" d="M451,301.5h61v30h-61V301.5z"/>
<g>
	<path class="st4" d="M121,481.5h90v30h-90V481.5z"/>
	<path class="st4" d="M0,451.5h61v30H0V451.5z"/>
	<path class="st4" d="M512,211.5v30h-16c-7.2,0-12,4.2-20.1,11.1c-9.3,8.4-21,18.9-39.9,18.9s-30.6-10.5-39.9-18.9
		c-16.2-14.1-24-14.1-40.2,0c-9.3,8.4-21,18.9-39.9,18.9c-18.9,0-30.6-10.5-39.9-18.9c-8.1-6.9-14.1-10.5-20.1-10.5
		s-12,3.6-20.1,10.5c-9.3,8.4-21,18.9-39.9,18.9s-30.6-10.5-39.9-18.9c-16.2-14.1-24-14.1-40.2,0c-9.3,8.4-21,18.9-39.9,18.9
		c-18.9,0-30.6-10.5-39.9-18.9c-8.1-6.9-13.9-11.1-21.1-11.1H0v-30h15c18.9,0,31.6,10.5,40.9,18.9c16.2,14.1,24,14.1,40.2,0
		c9.3-8.4,21-18.9,39.9-18.9c18.9,0,30.6,10.5,39.9,18.9c16.2,14.1,24,14.1,40.2,0c9.3-8.4,21-18.9,39.9-18.9
		c18.9,0,30.6,10.5,39.9,18.9c16.2,14.1,24,14.1,40.2,0c9.3-8.4,21-18.9,39.9-18.9c18.9,0,30.6,10.5,39.9,18.9
		c16.2,14.1,24,14.1,40.2,0c9.3-8.4,21-18.9,39.9-18.9H512z"/>
</g>
<path class="st5" d="M496,211.5h16v30h-16c-7.2,0-12,4.2-20.1,11.1c-9.3,8.4-21,18.9-39.9,18.9s-30.6-10.5-39.9-18.9
	c-16.2-14.1-24-14.1-40.2,0c-9.3,8.4-21,18.9-39.9,18.9c-18.9,0-30.6-10.5-39.9-18.9c-8.1-6.9-14.1-10.5-20.1-10.5v-30.6
	c18.9,0,30.6,10.5,39.9,18.9c16.2,14.1,24,14.1,40.2,0c9.3-8.4,21-18.9,39.9-18.9c18.9,0,30.6,10.5,39.9,18.9
	c16.2,14.1,24,14.1,40.2,0C465.4,222,477.1,211.5,496,211.5z"/>
<path class="st5" d="M256,444l105.3,38.4l-10.2,28.2L256,476.1V444z"/>
<path class="st5" d="M256,380.4L381.7,426l-10.2,28.2l-115.5-42V380.4z"/>
<path class="st6" d="M256,90l218.1,79.2l-10.2,28.2L256,121.8V90z"/>
<path class="st6" d="M494.5,112.8L484.3,141L256,57.9V26.1L494.5,112.8z"/>
<line class="st7" x1="195" y1="211.5" x2="441.3" y2="457.8"/>
<line class="st7" x1="446.2" y1="216.6" x2="191.5" y2="454.1"/>
</svg>
